<svg width="60" height="59" viewBox="0 0 60 59" fill="none" xmlns="http://www.w3.org/2000/svg">
<path d="M59.4641 2.28906C59.4641 1.54141 58.8523 0.929688 58.1047 0.929688L46.8898 0.980667L29.9996 21.1164L13.1264 0.99766L1.89453 0.946681C1.14687 0.946681 0.535156 1.54141 0.535156 2.30606C0.535156 2.62891 0.654101 2.93477 0.858007 3.18965L22.9648 29.5275L0.858007 55.8484C0.652679 56.0975 0.538752 56.4093 0.535156 56.732C0.535156 57.4797 1.14687 58.0914 1.89453 58.0914L13.1264 58.0404L29.9996 37.9047L46.8728 58.0234L58.0877 58.0744C58.8354 58.0744 59.4471 57.4797 59.4471 56.715C59.4471 56.3922 59.3281 56.0863 59.1242 55.8315L37.0514 29.5105L59.1582 3.17266C59.3621 2.93477 59.4641 2.61191 59.4641 2.28906Z" fill="#FF3838"/>
</svg>
